<?xml version="1.0" standalone="no"?>
<!DOCTYPE svg PUBLIC "-//W3C//DTD SVG 20010904//EN"
 "http://www.w3.org/TR/2001/REC-SVG-20010904/DTD/svg10.dtd">
<svg version="1.0" xmlns="http://www.w3.org/2000/svg"
 width="16.000000pt" height="16.000000pt" viewBox="0 0 16.000000 16.000000"
 preserveAspectRatio="xMidYMid meet">
<metadata>
Created by potrace 1.11, written by Peter Selinger 2001-2013
</metadata>
<g transform="translate(0.000000,16.000000) scale(0.006400,-0.006400)"
fill="#000000" stroke="none">
<path d="M1106 2148 c8 -13 311 -405 342 -443 10 -11 41 -51 70 -88 l53 -68
-89 -112 c-139 -176 -368 -471 -375 -483 -5 -8 119 -11 446 -10 511 1 483 -3
556 83 22 27 119 149 216 273 126 161 175 232 175 251 0 17 -22 54 -62 106
-64 82 -188 240 -236 303 -114 147 -133 166 -187 187 -45 17 -919 18 -909 1z"/>
<path d="M538 1549 c-96 -10 -83 2 -355 -347 -127 -162 -183 -242 -183 -259 0
-17 62 -105 205 -288 196 -253 228 -287 286 -312 28 -12 909 -19 909 -8 0 4
-106 142 -234 308 -231 296 -235 301 -218 323 63 82 152 196 291 374 88 112
158 206 156 208 -6 7 -797 7 -857 1z"/>
</g>
</svg>
