<?xml version="1.0" encoding="utf-8" ?>

<!DOCTYPE svg PUBLIC "-//W3C//DTD SVG 1.1//EN" "http://www.w3.org/Graphics/SVG/1.1/DTD/svg11.dtd">

<svg enable-background="new 0 0 250 182.62" height="182.62px" version="1.1" viewBox="0 0 250 182.62" width="250px" x="0px" xml:space="preserve" xmlns="http://www.w3.org/2000/svg" xmlns:xlink="http://www.w3.org/1999/xlink" y="0px">

	<g>

		<path clip-rule="evenodd" d="M109.783,0h84.581c6.493,0,12.274,3.054,15.992,7.8l38.22,48.923 c0.892,1.146,1.424,2.585,1.424,4.152c0,1.565-0.532,3.008-1.425,4.154l-38.219,48.92c-3.718,4.747-9.499,7.798-15.992,7.798 h-84.581l47.558-60.872L109.783,0z" fill="#0082C9" fill-rule="evenodd" />
		<path clip-rule="evenodd" d="M157.341,60.875l34.755-44.481 c1.347-1.723,2.148-3.892,2.148-6.247c0-5.603-4.541-10.145-10.146-10.145L109.783,0L157.341,60.875z" fill="#00416B" fill-rule="evenodd" />
		<path clip-rule="evenodd" d="M140.218,182.62H55.638c-6.497,0-12.276-3.051-15.99-7.798 L1.423,125.899C0.531,124.752,0,123.313,0,121.748c0-1.564,0.533-3.011,1.429-4.157l38.219-48.917 c3.713-4.746,9.493-7.798,15.99-7.798h84.581l-47.561,60.872L140.218,182.62z" fill="#FFD300" fill-rule="evenodd" />
		<path clip-rule="evenodd" d="M92.657,121.748l-34.749,44.48 c-1.348,1.722-2.152,3.891-2.152,6.248c0,5.604,4.543,10.144,10.143,10.144h74.318L92.657,121.748z" fill="#CF9810" fill-rule="evenodd" />

	</g>

</svg>
