<?xml version="1.0" encoding="utf-8" ?>

<!DOCTYPE svg PUBLIC "-//W3C//DTD SVG 1.1//EN" "http://www.w3.org/Graphics/SVG/1.1/DTD/svg11.dtd">

<svg enable-background="new 0 0 600 122.867" height="122.867px" version="1.1" viewBox="0 0 600 122.867" width="600px" x="0px" xml:space="preserve" xmlns="http://www.w3.org/2000/svg" xmlns:xlink="http://www.w3.org/1999/xlink" y="0px">

	<g>
		<path clip-rule="evenodd" d="M73.855,0h56.9c4.369,0,8.258,2.055,10.759,5.248l25.712,32.912 c0.599,0.771,0.958,1.739,0.958,2.793c0,1.053-0.358,2.023-0.959,2.795l-25.711,32.91c-2.501,3.193-6.391,5.246-10.759,5.246h-56.9 l31.994-40.951L73.855,0z" fill="#0082C9" fill-rule="evenodd" />
		<path clip-rule="evenodd" d="M105.849,40.953l23.381-29.924 c0.907-1.159,1.446-2.618,1.446-4.202c0-3.77-3.055-6.825-6.825-6.825L73.855,0L105.849,40.953z" fill="#00416B" fill-rule="evenodd" />
		<path clip-rule="evenodd" d="M381.588,57.624c-3.182,0.043-5.855,0.445-8.502,1.242 c-4.279,1.304-7.542,3.651-10.005,6.916c-4.113,5.426-4.053,11.882-4.053,11.882v45.059h12.042c0.76,0,1.395-0.64,1.399-1.405 V78.491c-0.005-0.85,0.113-3.812,1.795-5.317c1.328-1.197,3.131-1.78,4.884-2.036c1.934-0.274,3.749-0.148,4.654-0.031 c0,0,0.2,0.013,0.303,0.013c0.877,0,1.64-0.478,2.063-1.175l6.176-10.61C388.9,58.145,385.474,57.57,381.588,57.624z" fill="#00416B" fill-rule="evenodd" />
		<path clip-rule="evenodd" d="M346.264,57.624c-3.182,0.043-5.865,0.445-8.505,1.242 c-4.281,1.304-7.541,3.651-10.015,6.916c-4.11,5.426-4.044,11.882-4.044,11.882v45.059h12.043c0.761,0,1.39-0.64,1.395-1.405 V78.491c-0.005-0.85,0.119-3.812,1.79-5.317c1.337-1.197,3.134-1.78,4.889-2.036c1.947-0.274,3.737-0.148,4.66-0.031 c0,0,0.195,0.013,0.308,0.013c0.863,0,1.64-0.478,2.061-1.175l6.171-10.61C353.574,58.145,350.153,57.57,346.264,57.624z" fill="#00416B" fill-rule="evenodd" />
		<path clip-rule="evenodd" d="M241.372,106.055c-0.462-0.597-1.182-0.99-2.001-0.99 c-0.458,0-0.889,0.127-1.264,0.344l-0.045,0.033c-4.108,2.463-8.91,3.881-14.047,3.881c-15.115,0-27.414-12.306-27.414-27.427 c0-15.108,12.299-27.407,27.414-27.407c5.119,0,9.911,1.412,14.024,3.861c0.38,0.245,0.839,0.384,1.323,0.384 c0.803,0,1.517-0.378,1.979-0.949l6.866-8.907c-6.788-4.991-15.15-7.925-24.193-7.925c-22.58,0-40.954,18.366-40.954,40.943 c0,22.588,18.375,40.961,40.954,40.961c9.053,0,17.417-2.945,24.202-7.931L241.372,106.055z" fill="#00416B" fill-rule="evenodd" />
		<path clip-rule="evenodd" d="M423.506,56.669c-18.228,0-33.056,14.825-33.056,33.059 c0,18.032,14.838,32.871,33.074,33.06c0.32,0,0.971,0.005,0.971,0.005c7.202,0,12.957-0.989,20.58-5.931l1.236-0.81 c0,0-6.778-8.772-6.85-8.858c-0.449-0.592-1.157-0.976-1.939-0.976c-0.444,0-0.854,0.123-1.218,0.336 c-1.711,0.888-7.016,3.276-12.799,3.28c-8.721,0.006-16.154-5.584-18.931-13.362h45.231l5.233-0.021c0.781,0,1.41-0.623,1.41-1.4 l0.076-3.838c0.026-0.505,0.037-1.001,0.037-1.484C456.563,71.494,441.73,56.669,423.506,56.669z M423.506,69.632L423.506,69.632 c8.867,0,16.409,5.773,19.069,13.765h-38.134C407.097,75.406,414.635,69.632,423.506,69.632z" fill="#00416B" fill-rule="evenodd" />
		<path clip-rule="evenodd" d="M465.671,122.853c-0.755,0-1.374-0.597-1.397-1.346V60.202 c0.005-0.736,0.601-1.345,1.342-1.378h10.702c0.766,0,1.384,0.63,1.384,1.399v61.247c0,0.771-0.618,1.384-1.384,1.384H465.671z" fill="#00416B" fill-rule="evenodd" />
		<path clip-rule="evenodd" d="M283.86,122.853c-18.448,0-33.457-15.006-33.457-33.455 c0-18.448,15.009-33.464,33.457-33.464c18.451,0,33.469,15.016,33.469,33.464C317.329,107.847,302.312,122.853,283.86,122.853z M283.86,69.449L283.86,69.449c-11.001,0-19.947,8.945-19.947,19.949c0,11.003,8.946,19.948,19.947,19.948 c11.006,0,19.957-8.945,19.957-19.948C303.817,78.394,294.866,69.449,283.86,69.449z" fill="#00416B" fill-rule="evenodd" />
		<path clip-rule="evenodd" d="M517.501,122.765c-18.259,0-33.1-14.853-33.1-33.098 c0-18.262,14.841-33.108,33.1-33.108c18.268,0,33.119,14.846,33.119,33.108C550.62,107.913,535.769,122.765,517.501,122.765z M517.501,69.927L517.501,69.927c-10.875,0-19.738,8.854-19.738,19.74c0,10.887,8.863,19.737,19.738,19.737 c10.892,0,19.757-8.851,19.757-19.737C537.258,78.782,528.393,69.927,517.501,69.927z" fill="#00416B" fill-rule="evenodd" />
		<path clip-rule="evenodd" d="M588.238,84.594c-2.326-1.049-5.278-1.728-8.502-2.536 c-4.753-1.179-9.168-1.441-10.823-4.003c-1.523-2.358-0.7-5.143,1.358-6.562c4.684-3.226,11.033-1.934,14.543-0.319 c0.605,0.279,3.2,1.785,3.2,1.785c0.371,0.223,0.811,0.367,1.271,0.367c0.818,0,1.532-0.407,1.966-1.03 c0.05-0.055,6.699-8.666,6.699-8.666l-1.129-0.89c-0.663-0.479-1.576-1.122-2.55-1.676c-1.986-1.138-8.021-4.615-16.827-4.615 c-0.253,0-0.516,0.002-0.787,0.008c-19.282,0.455-21.948,14.072-21.948,18.883c0,7.306,3.761,12.539,9.412,15.808 c4.526,2.615,13.084,4.028,17.446,5.342c2.273,0.688,3.955,2.258,4.573,3.794c0.274,0.684,0.429,1.394,0.455,2.137 c0.077,2.503-1.268,5.421-5.015,6.575c-4.15,1.274-10.702,0.739-16.631-3.905c-0.194-0.15-0.839-0.678-1.073-0.765 c-0.279-0.104-0.574-0.156-0.893-0.156c-0.847,0-1.505,0.455-1.999,1.11c-0.087,0.113-6.582,8.489-6.582,8.489 s2.287,1.9,3.05,2.476c3.737,2.806,10.441,6.622,19.249,6.622h0.329C595.574,122.805,600,109.637,600,102.393 C600,94.993,595.461,87.836,588.238,84.594z" fill="#00416B" fill-rule="evenodd" />
		<path clip-rule="evenodd" d="M94.331,122.856H37.43c-4.371,0-8.259-2.054-10.757-5.247 L0.958,84.697C0.357,83.926,0,82.958,0,81.904c0-1.053,0.358-2.024,0.961-2.796l25.711-32.909 c2.498-3.193,6.386-5.246,10.757-5.246h56.901L62.334,81.904L94.331,122.856z" fill="#FFD300" fill-rule="evenodd" />
		<path clip-rule="evenodd" d="M62.334,81.904l-23.376,29.924 c-0.907,1.159-1.448,2.617-1.448,4.203c0,3.77,3.056,6.825,6.824,6.825h49.997L62.334,81.904z" fill="#CF9810" fill-rule="evenodd" />
	</g>

</svg>
